HIERARCHY
ROOT joint_Root
{
	OFFSET 0.0 0.0 0.0
	CHANNELS 6 Xposition Yposition Zposition Zrotation Xrotation Yrotation 
	JOINT Hips
	{
		OFFSET -0.726466 93.3139 -2.00062
		CHANNELS 6 Xposition Yposition Zposition Zrotation Xrotation Yrotation 
		JOINT Spine
		{
			OFFSET 15.7357 0.0 0.0
			CHANNELS 6 Xposition Yposition Zposition Zrotation Xrotation Yrotation 
			JOINT Chest
			{
				OFFSET 8.98455 -0.406207 0.0
				CHANNELS 6 Xposition Yposition Zposition Zrotation Xrotation Yrotation 
				JOINT Neck
				{
					OFFSET 16.3773 0.0 0.0
					CHANNELS 6 Xposition Yposition Zposition Zrotation Xrotation Yrotation 
					JOINT Head
					{
						OFFSET 6.45672 0.0 0.0
						CHANNELS 6 Xposition Yposition Zposition Zrotation Xrotation Yrotation 
						End Site
						{
							OFFSET 0.0 0.0 0.0
						}
					}
				}
				JOINT Shoulder_L
				{
					OFFSET 12.9942 -0.242716 4.98039
					CHANNELS 6 Xposition Yposition Zposition Zrotation Xrotation Yrotation 
					JOINT UpperArm_L
					{
						OFFSET 5.34809 0.0 0.0
						CHANNELS 6 Xposition Yposition Zposition Zrotation Xrotation Yrotation 
						JOINT LowerArm_L
						{
							OFFSET 24.3286 1.87007e-05 0.0
							CHANNELS 6 Xposition Yposition Zposition Zrotation Xrotation Yrotation 
							JOINT Hand_L
							{
								OFFSET 22.2916 0.0 0.0
								CHANNELS 6 Xposition Yposition Zposition Zrotation Xrotation Yrotation 
								End Site
								{
									OFFSET 0.0 0.0 0.0
								}
							}
						}
					}
				}
				JOINT Shoulder_R
				{
					OFFSET 12.9945 -0.242716 -4.98039
					CHANNELS 6 Xposition Yposition Zposition Zrotation Xrotation Yrotation 
					JOINT UpperArm_R
					{
						OFFSET -5.34813 0.0 0.0
						CHANNELS 6 Xposition Yposition Zposition Zrotation Xrotation Yrotation 
						JOINT LowerArm_R
						{
							OFFSET -24.3289 0.000322201 0.0
							CHANNELS 6 Xposition Yposition Zposition Zrotation Xrotation Yrotation 
							JOINT Hand_R
							{
								OFFSET -22.2915 -0.000108084 0.0
								CHANNELS 6 Xposition Yposition Zposition Zrotation Xrotation Yrotation 
								End Site
								{
									OFFSET 0.0 0.0 0.0
								}
							}
						}
					}
				}
			}
		}
		JOINT UpperLeg_L
		{
			OFFSET -2.19248 -6.46944 0.0
			CHANNELS 6 Xposition Yposition Zposition Zrotation Xrotation Yrotation 
			JOINT LowerLeg_L
			{
				OFFSET 39.0811 0.0 -1.23785e-05
				CHANNELS 6 Xposition Yposition Zposition Zrotation Xrotation Yrotation 
				JOINT Foot_L
				{
					OFFSET 40.9854 0.0 -1.26872e-05
					CHANNELS 6 Xposition Yposition Zposition Zrotation Xrotation Yrotation 
					JOINT Toes_L
					{
						OFFSET 11.7543 0.0 0.0
						CHANNELS 6 Xposition Yposition Zposition Zrotation Xrotation Yrotation 
						End Site
						{
							OFFSET 0.0 0.0 0.0
						}
					}
				}
			}
		}
		JOINT UpperLeg_R
		{
			OFFSET -2.19251 6.46944 0.0
			CHANNELS 6 Xposition Yposition Zposition Zrotation Xrotation Yrotation 
			JOINT LowerLeg_R
			{
				OFFSET -39.0811 -0.00228153 -0.0401928
				CHANNELS 6 Xposition Yposition Zposition Zrotation Xrotation Yrotation 
				JOINT Foot_R
				{
					OFFSET -40.9854 0.0 0.0
					CHANNELS 6 Xposition Yposition Zposition Zrotation Xrotation Yrotation 
					JOINT Toes_R
					{
						OFFSET -11.7543 0.0 0.0
						CHANNELS 6 Xposition Yposition Zposition Zrotation Xrotation Yrotation 
						End Site
						{
							OFFSET 0.0 0.0 0.0
						}
					}
				}
			}
		}
	}
}
MOTION
Frames:	9
Frame Time:	0.0333333
0.000000 0.000000 0.000000 0.000000 0.000000 -0.000000 -0.833344 92.289100 -1.289660 88.171600 -1.202400 3.900120 15.735700 0.000005 -0.000001 83.360900 85.277700 -82.605600 8.984550 -0.406207 -0.000000 1.623490 -1.131810 1.525450 16.377300 -0.000001 -0.000001 2.648540 -2.536350 -0.014504 6.456720 -0.000001 -0.000000 4.477220 -3.045090 -1.665040 12.994200 -0.242716 4.980390 -90.187700 0.591398 -72.389500 5.348090 -0.000007 -0.000001 -65.819300 40.614600 -16.816500 24.328600 0.000019 0.000005 2.834390 6.341280 -24.136300 22.291600 -0.000001 0.000005 2.843750 5.479320 -5.717480 12.994500 -0.242716 -4.980390 88.071500 6.328340 -73.013800 -5.348130 -0.000001 -0.000004 -64.505700 41.623900 -16.627200 -24.328900 0.000322 -0.000009 1.989730 6.876150 -16.189700 -22.291500 -0.000108 -0.000004 8.220150 5.428810 -3.898150 -2.192480 -6.469440 -0.000000 -175.676000 -6.250220 -2.764860 39.081100 -0.000007 -0.000012 -0.100102 0.237282 22.873400 40.985400 -0.000006 -0.000013 -0.171961 3.531420 -66.411900 11.754300 -0.000000 0.000003 -0.000024 -0.000300 -16.589300 -2.192510 6.469440 -0.000001 179.824000 13.492000 -179.768000 -39.081100 -0.002282 -0.040193 -0.016734 0.056952 19.400800 -40.985400 0.000008 0.000006 4.143650 6.856260 -66.318000 -11.754300 -0.000006 -0.000006 -0.005831 -0.069295 -19.393200
0.000000 0.000000 0.000000 0.000000 0.000000 -0.000000 -0.821814 92.286800 -1.288700 88.172600 -1.142300 3.951840 15.735700 0.000005 -0.000001 83.575900 85.281700 -82.756300 8.984550 -0.406207 -0.000000 1.619960 -1.099200 1.653260 16.377300 -0.000001 -0.000001 2.770480 -2.545170 -0.028284 6.456720 -0.000001 -0.000000 4.605470 -3.060750 -1.851700 12.994200 -0.242716 4.980390 -90.278500 0.869058 -72.231500 5.348090 -0.000007 -0.000001 -64.294900 39.475600 -18.038900 24.328600 0.000019 0.000005 4.318680 8.626680 -26.722000 22.291600 -0.000001 0.000005 0.024785 5.467750 -5.280970 12.994500 -0.242716 -4.980390 88.092200 6.238580 -72.958500 -5.348130 -0.000001 -0.000004 -64.719400 41.296000 -16.467200 -24.328900 0.000322 -0.000009 2.009430 6.944350 -16.190200 -22.291500 -0.000108 -0.000004 8.203480 5.427420 -3.850650 -2.192480 -6.469440 -0.000000 -175.685000 -6.234680 -2.729390 39.081100 -0.000007 -0.000012 -0.099394 0.235364 22.894400 40.985400 -0.000006 -0.000013 -0.153742 3.550320 -66.421100 11.754300 -0.000000 0.000003 -0.000025 -0.000305 -16.589500 -2.192510 6.469440 -0.000001 179.799000 13.530200 -179.709000 -39.081100 -0.002282 -0.040193 -0.016668 0.056727 19.412300 -40.985400 0.000008 0.000006 4.151220 6.829480 -66.334600 -11.754300 -0.000006 -0.000006 -0.005683 -0.067932 -19.337600
0.000000 0.000000 0.000000 0.000000 0.000000 -0.000000 -0.827842 92.273400 -1.325250 88.203200 -0.918425 4.046270 15.735700 0.000005 -0.000001 83.921100 85.274500 -83.047300 8.984550 -0.406207 -0.000000 1.640640 -1.046990 1.761050 16.377300 -0.000001 -0.000001 2.969860 -2.604890 -0.105273 6.456720 -0.000001 -0.000000 4.719030 -3.144880 -1.981430 12.994200 -0.242716 4.980390 -90.353800 1.095360 -72.097700 5.348090 -0.000007 -0.000001 -61.438700 37.804200 -20.546300 24.328600 0.000019 0.000005 4.777190 8.296830 -30.078200 22.291600 -0.000001 0.000005 -1.125250 5.464060 -5.149590 12.994500 -0.242716 -4.980390 88.118300 6.116020 -72.862300 -5.348130 -0.000001 -0.000004 -64.961500 41.056300 -16.314600 -24.328900 0.000322 -0.000009 1.990440 6.892610 -16.158800 -22.291500 -0.000108 -0.000004 8.107880 5.426960 -3.834730 -2.192480 -6.469440 -0.000000 -175.706000 -6.090100 -2.752720 39.081100 -0.000007 -0.000012 -0.100258 0.236165 23.002500 40.985400 -0.000006 -0.000013 -0.129143 3.672020 -66.427600 11.754300 -0.000000 0.000003 -0.000025 -0.000307 -16.589500 -2.192510 6.469440 -0.000001 179.725000 13.668600 -179.667000 -39.081100 -0.002282 -0.040193 -0.022033 0.071559 19.510300 -40.985400 0.000008 0.000006 3.933480 6.770100 -66.342500 -11.754300 -0.000006 -0.000006 -0.005807 -0.069075 -19.384200
0.000000 0.000000 0.000000 0.000000 0.000000 -0.000000 -0.850004 92.272600 -1.367580 88.244900 -0.473932 4.172160 15.735700 0.000005 -0.000001 84.156800 85.262500 -83.226800 8.984550 -0.406207 -0.000000 1.668840 -1.013530 1.873060 16.377300 -0.000001 -0.000001 3.229280 -2.689960 -0.228863 6.456720 -0.000001 -0.000000 4.947440 -3.365650 -2.123040 12.994200 -0.242716 4.980390 -90.345300 1.066270 -72.053900 5.348090 -0.000007 -0.000001 -58.479400 34.473300 -23.838700 24.328600 0.000019 0.000005 5.067060 7.609120 -33.807600 22.291600 -0.000001 0.000005 -0.343527 5.470490 -5.387120 12.994500 -0.242716 -4.980390 88.129700 6.033960 -72.743200 -5.348130 -0.000001 -0.000004 -64.983100 41.080400 -16.289100 -24.328900 0.000322 -0.000009 2.006830 7.019670 -16.006600 -22.291500 -0.000108 -0.000004 8.143180 5.428770 -3.896960 -2.192480 -6.469440 -0.000000 -175.729000 -5.866900 -2.730270 39.081100 -0.000007 -0.000012 -0.100124 0.235624 23.022200 40.985400 -0.000006 -0.000013 -0.108556 3.842460 -66.370200 11.754300 -0.000000 0.000003 -0.000019 -0.000245 -16.587200 -2.192510 6.469440 -0.000001 179.679000 13.878700 -179.562000 -39.081100 -0.002282 -0.040193 -0.022134 0.071681 19.551200 -40.985400 0.000008 0.000006 3.929170 6.537470 -66.357700 -11.754300 -0.000006 -0.000006 -0.005715 -0.068223 -19.349500
0.000000 0.000000 0.000000 0.000000 0.000000 -0.000000 -0.896462 92.267600 -1.422480 88.293900 0.057211 4.353560 15.735700 0.000005 -0.000001 83.936600 85.244700 -82.933400 8.984550 -0.406207 -0.000000 1.701690 -1.057090 2.020300 16.377300 -0.000001 -0.000001 3.530530 -2.806250 -0.435408 6.456720 -0.000001 -0.000000 5.249380 -3.597480 -2.303700 12.994200 -0.242716 4.980390 -90.310700 0.960522 -72.074300 5.348090 -0.000007 -0.000001 -55.857800 29.542700 -27.305700 24.328600 0.000019 0.000005 5.828890 7.416560 -38.337100 22.291600 -0.000001 0.000005 0.798026 5.471780 -5.435120 12.994500 -0.242716 -4.980390 88.145000 5.970290 -72.704800 -5.348130 -0.000001 -0.000004 -64.913500 41.057400 -16.332800 -24.328900 0.000322 -0.000009 2.032280 7.212070 -15.790800 -22.291500 -0.000108 -0.000004 8.103720 5.430270 -3.948320 -2.192480 -6.469440 -0.000000 -175.728000 -5.648080 -2.691460 39.081100 -0.000007 -0.000012 -0.100331 0.235523 23.073800 40.985400 -0.000006 -0.000013 -0.065714 4.192100 -66.310800 11.754300 -0.000000 0.000003 -0.000023 -0.000287 -16.588800 -2.192510 6.469440 -0.000001 179.628000 14.161400 -179.411000 -39.081100 -0.002282 -0.040193 -0.020612 0.067122 19.625200 -40.985400 0.000008 0.000006 3.940560 6.273430 -66.397500 -11.754300 -0.000006 -0.000006 -0.005610 -0.067254 -19.309900
0.000000 0.000000 0.000000 0.000000 0.000000 -0.000000 -0.940489 92.255600 -1.464960 88.386800 0.684318 4.573160 15.735700 0.000005 -0.000001 83.497200 85.216700 -82.435800 8.984550 -0.406207 -0.000000 1.750810 -1.138500 2.138310 16.377300 -0.000001 -0.000001 3.852820 -2.974140 -0.627799 6.456720 -0.000001 -0.000000 5.464960 -3.836840 -2.535450 12.994200 -0.242716 4.980390 -90.233200 0.723327 -72.130000 5.348090 -0.000007 -0.000001 -53.398800 23.859600 -31.152800 24.328600 0.000019 0.000005 6.693740 7.111960 -43.469400 22.291600 -0.000001 0.000005 1.927680 5.473500 -5.500520 12.994500 -0.242716 -4.980390 88.138900 5.946770 -72.586700 -5.348130 -0.000001 -0.000004 -64.790200 40.927600 -16.415200 -24.328900 0.000322 -0.000009 2.008720 7.209850 -15.621200 -22.291500 -0.000108 -0.000004 8.172560 5.429460 -3.920500 -2.192480 -6.469440 -0.000000 -175.787000 -5.285280 -2.610490 39.081100 -0.000007 -0.000012 -0.100008 0.234144 23.128400 40.985400 -0.000006 -0.000013 -0.043070 4.445730 -66.264100 11.754300 -0.000000 0.000003 -0.000023 -0.000288 -16.588800 -2.192510 6.469440 -0.000001 179.492000 14.532000 -179.229000 -39.081100 -0.002282 -0.040193 -0.022995 0.073237 19.764800 -40.985400 0.000008 0.000006 3.907660 6.017610 -66.483400 -11.754300 -0.000006 -0.000006 -0.005759 -0.068631 -19.366100
0.000000 0.000000 0.000000 0.000000 0.000000 -0.000000 -0.997468 92.251800 -1.510200 88.455400 1.156040 4.729560 15.735700 0.000005 -0.000001 83.253900 85.211600 -82.132300 8.984550 -0.406207 -0.000000 1.757300 -1.183100 2.259240 16.377300 -0.000001 -0.000001 4.110730 -3.120990 -0.671125 6.456720 -0.000001 -0.000000 5.647740 -3.954670 -2.822450 12.994200 -0.242716 4.980390 -90.142000 0.438179 -72.041900 5.348090 -0.000007 -0.000001 -51.319800 17.612500 -35.283100 24.328600 0.000019 0.000005 7.315620 6.439660 -48.856400 22.291600 -0.000001 0.000005 2.904260 5.474060 -5.522610 12.994500 -0.242716 -4.980390 88.120200 5.952800 -72.439000 -5.348130 -0.000001 -0.000004 -64.618400 40.718000 -16.552200 -24.328900 0.000322 -0.000009 1.992350 7.197490 -15.525200 -22.291500 -0.000108 -0.000004 8.196900 5.428290 -3.880500 -2.192480 -6.469440 -0.000000 -175.810000 -5.082380 -2.566760 39.081100 -0.000007 -0.000012 -0.100490 0.235077 23.145500 40.985400 -0.000006 -0.000013 -0.019501 4.730310 -66.194500 11.754300 -0.000000 0.000003 -0.000021 -0.000267 -16.588000 -2.192510 6.469440 -0.000001 179.410000 14.794300 -179.096000 -39.081100 -0.002282 -0.040193 -0.024261 0.076489 19.829600 -40.985400 0.000008 0.000006 3.838460 5.805720 -66.507700 -11.754300 -0.000006 -0.000006 -0.005848 -0.069449 -19.399500
0.000000 0.000000 0.000000 0.000000 0.000000 -0.000000 -1.055870 92.249200 -1.568360 88.498800 1.460780 4.832790 15.735700 0.000005 -0.000001 82.944400 85.223100 -81.762100 8.984550 -0.406207 -0.000000 1.729650 -1.235100 2.381090 16.377300 -0.000001 -0.000001 4.324180 -3.168740 -0.780071 6.456720 -0.000001 -0.000000 5.753710 -3.965580 -2.909510 12.994200 -0.242716 4.980390 -89.968200 -0.098497 -72.099200 5.348090 -0.000007 -0.000001 -50.499600 10.686800 -38.957100 24.328600 0.000019 0.000005 8.440770 5.987880 -54.891700 22.291600 -0.000001 0.000005 4.130200 5.478800 -5.698470 12.994500 -0.242716 -4.980390 88.105200 5.961680 -72.332400 -5.348130 -0.000001 -0.000004 -64.392400 40.608000 -16.716000 -24.328900 0.000322 -0.000009 2.041660 7.350780 -15.576900 -22.291500 -0.000108 -0.000004 8.284900 5.428200 -3.877130 -2.192480 -6.469440 -0.000000 -175.802000 -4.988310 -2.551900 39.081100 -0.000007 -0.000012 -0.099488 0.232546 23.162300 40.985400 -0.000006 -0.000013 -0.016039 4.949900 -66.137200 11.754300 -0.000000 0.000003 -0.000023 -0.000282 -16.588600 -2.192510 6.469440 -0.000001 179.400000 14.900600 -179.046000 -39.081100 -0.002282 -0.040193 -0.024785 0.077640 19.901200 -40.985400 0.000008 0.000006 3.856070 5.583300 -66.527300 -11.754300 -0.000006 -0.000006 -0.005722 -0.068287 -19.352100
0.000000 0.000000 0.000000 0.000000 0.000000 -0.000000 -1.098670 92.250000 -1.602080 88.524400 1.525580 4.857940 15.735700 0.000005 -0.000001 82.814800 85.238900 -81.570400 8.984550 -0.406207 -0.000000 1.696650 -1.256220 2.505150 16.377300 -0.000001 -0.000001 4.377690 -3.122280 -0.877804 6.456720 -0.000001 -0.000000 5.823850 -3.886360 -2.916010 12.994200 -0.242716 4.980390 -89.752600 -0.764198 -72.059200 5.348090 -0.000007 -0.000001 -50.355600 3.783010 -42.732600 24.328600 0.000019 0.000005 8.868440 5.012570 -60.756500 22.291600 -0.000001 0.000005 6.107020 5.493850 -6.282280 12.994500 -0.242716 -4.980390 88.105800 5.946130 -72.294500 -5.348130 -0.000001 -0.000004 -64.100200 40.609000 -16.995300 -24.328900 0.000322 -0.000009 2.023360 7.223670 -15.701100 -22.291500 -0.000108 -0.000004 8.293540 5.427980 -3.869660 -2.192480 -6.469440 -0.000000 -175.788000 -5.020990 -2.557740 39.081100 -0.000007 -0.000012 -0.101402 0.237143 23.151600 40.985400 -0.000006 -0.000013 -0.027471 5.047160 -66.095300 11.754300 -0.000000 0.000003 -0.000021 -0.000258 -16.587700 -2.192510 6.469440 -0.000001 179.404000 14.907900 -179.058000 -39.081100 -0.002282 -0.040193 -0.024421 0.076511 19.930600 -40.985400 0.000008 0.000006 3.845830 5.538930 -66.520900 -11.754300 -0.000006 -0.000006 -0.005806 -0.069063 -19.383700
